<?xml version="1.0" standalone="no"?><!DOCTYPE svg PUBLIC "-//W3C//DTD SVG 1.1//EN" "http://www.w3.org/Graphics/SVG/1.1/DTD/svg11.dtd"><svg t="1552270041399" class="icon" style="" viewBox="0 0 1024 1024" version="1.1" xmlns="http://www.w3.org/2000/svg" p-id="1372" xmlns:xlink="http://www.w3.org/1999/xlink" width="48" height="48"><defs><style type="text/css"></style></defs><path d="M430.3 495.3c-105.7 10.5-185.9 75.9-179 146 6.9 70.1 98.1 118.3 203.9 107.8 105.7-10.6 185.9-75.9 179-146-6.8-70.1-98.1-118.4-203.9-107.8z m-3.7 214.6c-52.2 10-101.7-15.4-110.4-56.8-8.7-41.3 26.5-82.9 78.7-92.9s101.7 15.5 110.4 56.8c8.8 41.3-26.4 82.9-78.7 92.9z" fill="#FB6767" p-id="1373"></path><path d="M440.7 609.7c-7 1.7-11.7 8.6-10.5 15.5 1.2 6.9 7.8 11.1 14.7 9.5 7-1.7 11.7-8.6 10.5-15.5-1.2-6.9-7.8-11.1-14.7-9.5zM379.9 622.9c-17.4 3.3-29.2 17.2-26.2 31 2.9 13.8 19.4 22.3 36.8 18.9 17.4-3.3 29.2-17.2 26.2-31-2.9-13.7-19.4-22.2-36.8-18.9z" fill="#FB6767" p-id="1374"></path><path d="M513.1 23.9c-270.2 0-489.2 219-489.2 489.2s219 489.2 489.2 489.2 489.2-219 489.2-489.2-219-489.2-489.2-489.2z m-55.5 765.2c-133.8 0-270.6-70.4-270.6-175.6 0-55 35.3-118.7 96.2-178.7 81.3-80.1 176-116.7 211.6-81.5 15.7 15.5 17.2 42.3 7.1 74.4-5.3 16.1 15.4 7.2 15.4 7.2 65.7-27.1 123-28.7 143.9 0.8 11.2 15.7 10.1 37.8-0.2 63.4-4.8 11.8 1.5 13.6 10.6 16.3 37 11.3 78.2 38.7 78.2 87-0.1 79.7-116.8 186.7-292.2 186.7z m274.1-334.2c-12.2 2.5-26.6-5.1-26.6-17.7 0-27.3-26.1-64.9-65.2-65.7-12.5-0.3-20.1-14.5-17.5-26.8 2.5-12.3 14.2-17.8 26.6-17.7 56.1 0.6 94.2 44.5 100.3 101.1 2.5 12.2-5.4 24.2-17.6 26.8z m107.5-22.4c0 12.6-10.2 22.8-22.7 22.8s-22.7-10.2-22.7-22.8c0-82.7-66.8-149.8-149.3-149.8-12.6 0-22.7-10.2-22.7-22.8 0-12.6 10.2-22.8 22.7-22.8 107.6 0 194.7 87.5 194.7 195.4z" fill="#FB6767" p-id="1375"></path></svg>