<?xml version="1.0" standalone="no"?><!DOCTYPE svg PUBLIC "-//W3C//DTD SVG 1.1//EN" "http://www.w3.org/Graphics/SVG/1.1/DTD/svg11.dtd"><svg t="1551535940014" class="icon" style="" viewBox="0 0 1024 1024" version="1.1" xmlns="http://www.w3.org/2000/svg" p-id="4416" xmlns:xlink="http://www.w3.org/1999/xlink" width="48" height="48"><defs><style type="text/css"></style></defs><path d="M512 0C229.236 0 0 229.236 0 512c0 282.787 229.236 512 512 512s512-229.213 512-512C1024 229.236 794.764 0 512 0z m145.292 512.023c0 77.196-60.393 139.73-136.425 144.408L345.135 808.145l-22.878-13.242 58.229-222.022c-8.634-18.548-13.8-39.074-13.8-60.858 0-77.195 60.369-139.73 136.377-144.43l175.802-151.715 22.878 13.172L643.49 451.12c8.634 18.571 13.8 39.074 13.8 60.904z" fill="#E76021" p-id="4417"></path><path d="M445.952 512a2.838 2.838 0 1 0 132.096 0 2.838 2.838 0 1 0-132.096 0z" fill="#E76021" p-id="4418"></path></svg>