<?xml version="1.0" standalone="no"?><!DOCTYPE svg PUBLIC "-//W3C//DTD SVG 1.1//EN" "http://www.w3.org/Graphics/SVG/1.1/DTD/svg11.dtd"><svg t="1551535893508" class="icon" style="" viewBox="0 0 1024 1024" version="1.1" xmlns="http://www.w3.org/2000/svg" p-id="4296" xmlns:xlink="http://www.w3.org/1999/xlink" width="48" height="48"><defs><style type="text/css"></style></defs><path d="M272.869 818.785v-327.51h35.963v-40.557H125.17v36.92h35.96v331.146h111.74zM67.777 414.755h889.262c21.429-9.376 20.472-29.466 0.382-42.856C937.332 358.504 511.629 51.2 511.629 51.2S89.206 358.504 67.777 371.899c-21.428 13.39-22.767 33.48 0 42.857z m443.852-211.809c35.503 0 64.285 28.78 64.285 64.286 0 35.503-28.781 64.286-64.285 64.286-35.507 0-64.289-28.782-64.289-64.286 0-35.507 28.782-64.286 64.289-64.286zM89.942 892.266H934.87v-35.962H89.941v35.963zM53.246 965.75H971.57v-33.66H53.246v33.66zM568.28 818.785V488.977h35.96v-35.964H420.577v34.625h35.96v331.146H568.28z m293.109 0V488.977h35.963v-35.964H713.685v34.625h35.964v331.146h111.74z" fill="#1e50ae" p-id="4297"></path></svg>