<?xml version="1.0" standalone="no"?><!DOCTYPE svg PUBLIC "-//W3C//DTD SVG 1.1//EN" "http://www.w3.org/Graphics/SVG/1.1/DTD/svg11.dtd"><svg t="1551535865987" class="icon" style="" viewBox="0 0 1024 1024" version="1.1" xmlns="http://www.w3.org/2000/svg" p-id="4133" xmlns:xlink="http://www.w3.org/1999/xlink" width="48" height="48"><defs><style type="text/css"></style></defs><path d="M921.6 1024H102.4c-56.32 0-102.4-46.08-102.4-102.4V102.4C0 46.08 46.08 0 102.4 0h819.2c56.32 0 102.4 46.08 102.4 102.4v819.2c0 56.32-46.08 102.4-102.4 102.4z" fill="#F8C342" p-id="4134"></path><path d="M545.28 742.4H742.4v-197.12h-197.12V742.4zM478.72 281.6H281.6v197.12h197.12V281.6zM445.44 448H314.88v-133.12H445.44v133.12zM281.6 742.4h197.12v-197.12H281.6V742.4z m33.28-166.4H445.44v133.12H314.88v-133.12z m230.4-294.4v197.12H742.4V281.6h-197.12z m163.84 166.4H578.56v-133.12h130.56v133.12z" fill="#FFFFFF" p-id="4135"></path></svg>