<?xml version="1.0" standalone="no"?><!DOCTYPE svg PUBLIC "-//W3C//DTD SVG 1.1//EN" "http://www.w3.org/Graphics/SVG/1.1/DTD/svg11.dtd"><svg t="1552270184466" class="icon" style="" viewBox="0 0 1024 1024" version="1.1" xmlns="http://www.w3.org/2000/svg" p-id="2216" xmlns:xlink="http://www.w3.org/1999/xlink" width="48" height="48"><defs><style type="text/css"></style></defs><path d="M570.625 510.794c-10.16 0-20.321 9.435-20.321 21.046 0 9.435 10.16 18.87 20.321 18.87 15.24 0 26.126-9.436 26.126-18.87 0-11.611-10.886-21.046-26.126-21.046zM503.856 412.818c15.966 0 26.126-10.16 26.126-25.4 0-15.967-10.16-25.402-26.126-25.402-15.24 0-29.755 9.435-29.755 25.401 0 15.241 14.515 25.401 29.755 25.401z" fill="#47DB4E" p-id="2217"></path><path d="M511.84 65.717c-246.01 0-445.44 199.43-445.44 445.44s199.43 445.44 445.44 445.44 445.44-199.43 445.44-445.44-199.43-445.44-445.44-445.44zM427.652 624.01c-26.852 0-46.447-4.354-71.849-11.612l-73.3 37.014 21.046-62.414c-51.527-36.288-82.009-82.01-82.009-137.892 0-98.701 92.896-174.178 206.112-174.178 100.152 0 189.42 59.51 206.838 143.698-7.257-1.451-13.79-2.177-19.595-2.177-98.702 0-174.905 74.025-174.905 163.292 0 15.24 2.177 29.029 5.806 43.544-5.806 0.725-12.338 0.725-18.144 0.725z m302.636 71.123l14.515 52.254-55.156-31.208c-21.047 4.355-41.368 10.887-62.414 10.887-97.25 0-174.179-66.77-174.179-149.503s76.93-149.503 174.179-149.503c92.169 0 174.904 66.769 174.904 149.503 0 46.447-31.207 87.815-71.849 117.57z" fill="#47DB4E" p-id="2218"></path><path d="M360.16 362.017c-15.241 0-31.208 9.435-31.208 25.401 0 15.24 15.966 25.401 31.207 25.401 14.515 0 26.127-10.16 26.127-25.4 0-15.968-11.613-25.402-26.127-25.402zM684.567 510.794c-10.887 0-20.322 9.435-20.322 21.046 0 9.435 9.435 18.87 20.322 18.87 14.515 0 25.4-9.436 25.4-18.87 0-11.611-10.885-21.046-25.4-21.046z" fill="#47DB4E" p-id="2219"></path></svg>