<?xml version="1.0" standalone="no"?><!DOCTYPE svg PUBLIC "-//W3C//DTD SVG 1.1//EN" "http://www.w3.org/Graphics/SVG/1.1/DTD/svg11.dtd"><svg t="1552399344292" class="icon" style="" viewBox="0 0 1024 1024" version="1.1" xmlns="http://www.w3.org/2000/svg" p-id="3343" xmlns:xlink="http://www.w3.org/1999/xlink" width="48" height="48"><defs><style type="text/css"></style></defs><path d="M504.9 411.6c15.9 0 26.5-10.6 26.5-26.5s-10.5-26.4-26.5-26.4c-15.8 0-31.7 10.5-31.7 26.4 0 15.9 15.9 26.5 31.7 26.5z m68.8 100.5c-10.5 0-21.1 10.6-21.1 21.1 0 10.7 10.6 21.1 21.1 21.1 16 0 26.5-10.5 26.5-21.1-0.1-10.5-10.6-21.1-26.5-21.1zM356.9 358.7c-15.8 0-31.8 10.5-31.8 26.4 0 15.9 16 26.5 31.8 26.5s26.4-10.6 26.4-26.5-10.5-26.4-26.4-26.4z m333 153.4c-10.5 0-21 10.6-21 21.1 0 10.7 10.5 21.1 21 21.1 15.8 0 26.5-10.5 26.5-21.1 0-10.5-10.6-21.1-26.5-21.1z" fill="#07B906" p-id="3344"></path><path d="M736.1 64.1h-448c-123.2 0-224 100.8-224 224v448c0 123.2 100.8 224 224 224h448c123.2 0 224-100.8 224-224v-448c0-123.2-100.8-224-224-224zM425.6 628.5c-26.4 0-47.6-5.4-74.1-10.6L277.7 655l21.1-63.6c-52.9-37-84.6-84.7-84.6-142.7 0-100.6 95.2-179.8 211.4-179.8 104 0 195 63.3 213.3 148.5-6.7-0.8-13.5-1.2-20.4-1.2-100.4 0-179.7 74.9-179.7 167.3 0 15.4 2.4 30.2 6.5 44.3-6.5 0.4-13 0.7-19.7 0.7z m311.9 74.1l15.9 52.8-58-31.8c-21.1 5.3-42.4 10.6-63.4 10.6-100.6 0-179.8-68.8-179.8-153.4 0-84.5 79.2-153.4 179.8-153.4 95 0 179.6 68.9 179.6 153.4-0.1 47.7-31.7 89.9-74.1 121.8z" fill="#07B906" p-id="3345"></path></svg>