<?xml version="1.0" standalone="no"?><!DOCTYPE svg PUBLIC "-//W3C//DTD SVG 1.1//EN" "http://www.w3.org/Graphics/SVG/1.1/DTD/svg11.dtd"><svg t="1552399314671" class="icon" style="" viewBox="0 0 1024 1024" version="1.1" xmlns="http://www.w3.org/2000/svg" p-id="2433" xmlns:xlink="http://www.w3.org/1999/xlink" width="48" height="48"><defs><style type="text/css"></style></defs><path d="M916.35 107.63C868.66 55.4 803.47 64.56 695.7 64.57H308.51c-53.58 0-126.25-2.08-156.3 13.96-34.19 18.25-53.66 41.33-73.26 74.17-20.34 34.06-13.58 95.93-13.58 237.6v338.4c0 42.13 0.89 122.67 14 146.39 24.88 45.02 70.52 84.17 130.52 84.17h491.27c30.06 0 65.41 0.29 104.86 0.29 39.46 0 51.68-5.73 69.85-14.42 31.41-15.03 55.8-46.15 70.02-73.22 12.26-23.34 14.02-52.56 14.02-52.56V676.02 314.47c0-134.1-1.81-161.13-43.56-206.84z" fill="#FFFFFF" p-id="2434"></path><path d="M959.91 676.02V314.47c0-134.11-1.8-161.13-43.55-206.84-47.7-52.23-112.89-43.07-220.66-43.06H308.51c-53.58 0-126.25-2.08-156.3 13.96-34.19 18.25-53.66 41.33-73.26 74.17-20.34 34.06-13.58 95.93-13.58 237.6v338.4c0 42.13 0.89 122.67 14 146.39 24.88 45.02 70.52 84.17 130.52 84.17 59.99 0 556.68 0.29 596.13 0.29 39.46 0 51.68-5.73 69.85-14.42 31.41-15.03 55.8-46.15 70.02-73.22 12.26-23.34 14.02-52.56 14.02-52.56L611.87 664.18s-29.33 32-43.45 45.8c-26.25 25.65-73.18 57.03-102.01 75.47-27.12 17.35-56.36 23.97-101.51 27.79-122.65 10.38-215.22-35.52-232.44-127-10.46-55.59 10.39-106.51 30.73-129.99 92.73-107.08 300.77-42.42 415.27-3.57 16.64-26.32 46.46-101.32 50.01-120.59-114.57-0.47-346.5 0-346.5 0v-35.23h170.17V335.9H244.36v-38h207.78v-87.36s-0.07-7.07 4.06-10.87c4.13-3.8 9.2-3.6 9.2-3.6h90.48l1.52 101.83h224v38H557.41v60.96s152.39 0.31 180.82 0c-14.07 73.58-72.54 187.51-72.54 187.51l294.22 91.65zM223.39 573.78c-59.19 34.45-80.17 92.56-15.68 151.91 64.3 59.18 237.9 28.9 325.07-100.79-75.33-41.44-250.2-85.57-309.39-51.12z" fill="#00AAEE" p-id="2435"></path></svg>